<svg xmlns="http://www.w3.org/2000/svg" viewBox="0 0 1200 900" role="img" aria-labelledby="title desc">
  <title id="title">Wangari Maathai</title>
  <desc id="desc">Editorial vector reveal poster for Wangari Maathai</desc>
  <defs>
    <linearGradient id="bg" x1="0" y1="0" x2="1" y2="1"><stop stop-color="#11151a"/><stop offset="1" stop-color="#050607"/></linearGradient>
    <pattern id="grain" width="24" height="24" patternUnits="userSpaceOnUse"><circle cx="3" cy="5" r="1.5" fill="#fff" opacity=".07"/><circle cx="18" cy="15" r="1" fill="#fff" opacity=".05"/></pattern>
    <clipPath id="frame"><rect x="48" y="48" width="1104" height="804" rx="42"/></clipPath>
  </defs>
  <rect width="1200" height="900" fill="url(#bg)"/>
  <g clip-path="url(#frame)">
    <rect x="48" y="48" width="1104" height="804" rx="42" fill="#167447"/>
    <path d="M-80 780 760-70h520L390 940Z" fill="#080a0d" opacity=".9"/>
    <path d="M760 0h440v900H500Z" fill="#d8ef57" opacity=".18"/>
    <g transform="translate(635 108) rotate(-8 260 340)">
      <circle cx="260" cy="195" r="132" fill="#090b0e"/>
      <path d="M75 690c6-226 78-355 185-355s179 129 185 355Z" fill="#090b0e"/>
      <path d="M176 306c38 36 130 36 168 0v116c-46 42-122 42-168 0Z" fill="#090b0e"/>
      <path d="M151 179c35-102 183-134 242-27-72-38-160-29-242 27Z" fill="#d8ef57" opacity=".42"/>
    </g>
    <text x="105" y="145" font-family="Arial Black,Arial,sans-serif" font-size="34" letter-spacing="9" fill="#fff" opacity=".76">CLUE HEIST</text>
    <text x="105" y="230" font-family="Arial Black,Arial,sans-serif" font-size="72" letter-spacing="3" fill="#fff">PLANET</text>
    <text x="105" y="710" font-family="Arial Black,Arial,sans-serif" font-size="190" fill="#d8ef57">♧</text>
    <path d="M105 760h390" stroke="#fff" stroke-width="12"/>
    <rect width="1200" height="900" fill="url(#grain)"/>
  </g>
  <rect x="48" y="48" width="1104" height="804" rx="42" fill="none" stroke="#fff" stroke-width="6" opacity=".85"/>
</svg>
